# xmcd
#
# Track frame offsets: 
#        150
#        7206
#        26323
#        45786
#        62689
#        83072
#        100779
#        120629
#        138847
#        156099
#        177477
#        196956
#        217348
#        244248
#        255916
#        279539
#        299078
#        321369
#
# Disc length: 4555 seconds
#
# Revision: 0
# Processed by: cddbd v1.5.1PL2 Copyright (c) Steve Scherf et al.
# Submitted via: ExactAudioCopy v0.95b4
#
DISCID=0311c912
DTITLE=Dayang Nurfaizah - Kasih
DYEAR=1900
DGENRE=
TTITLE0=Puteri Santubong (Intro)
TTITLE1=Gelora
TTITLE2=Kasih
TTITLE3=Sri Bulan
TTITLE4=Malam Bulan Di Pagar Bintang
TTITLE5=Saat Yang Bahagia
TTITLE6=Pujaan Hatiku
TTITLE7=Penawar Rindu
TTITLE8=Fatwa Pujangga
TTITLE9=Tiga Malam
TTITLE10=Sri Sarawak
TTITLE11=El Atardecer De La Luna (Malam Bulan Di Pagar Bintang - Spani
TTITLE11=sh Version)
TTITLE12=Kasih (Live at Planet Hollywood KL)
TTITLE13=Suriram
TTITLE14=Kau Teristimewa
TTITLE15=Kasih Maafkan
TTITLE16=Seandainya Masih Ada Cinta
TTITLE17=Dayang Sayang Kamu
EXTD=
EXTT0=
EXTT1=
EXTT2=
EXTT3=
EXTT4=
EXTT5=
EXTT6=
EXTT7=
EXTT8=
EXTT9=
EXTT10=
EXTT11=
EXTT12=
EXTT13=
EXTT14=
EXTT15=
EXTT16=
EXTT17=
PLAYORDER=
